# xmcd
# Copyright (C) 1995-1998 Ti Kan
#
# Track frame offsets:
#       150
#       13473
#       28543
#       42568
#       55478
#       72255
#       82630
#       95363
#       109185
#       123735
#       137408
#       151743
#
# Disc length: 2186 seconds
#
# Revision: 0
# Processed by: cddbd v1.5.2PL0 Copyright (c) Steve Scherf et al.
# Submitted via: CD-Import v1.0
#
DISCID=9b08880c
DTITLE=Chavela Vargas - Volver, Volver
DYEAR=1996
DGENRE=
TTITLE0=Volver
TTITLE1=Soledad
TTITLE2=La Churrasca
TTITLE3=Tu Y La Mentira
TTITLE4=Se Me Hizo Facil
TTITLE5=El Dia Que Me Dijiste
TTITLE6=Concha Nacar
TTITLE7=Maria Tepozteca
TTITLE8=Quisiera Amarte Menos
TTITLE9=La Noche De Mi Mal
TTITLE10=Hacia La Vida
TTITLE11=En El Ultimo Trago
EXTD=
EXTT0=
EXTT1=
EXTT2=
EXTT3=
EXTT4=
EXTT5=
EXTT6=
EXTT7=
EXTT8=
EXTT9=
EXTT10=
EXTT11=
PLAYORDER=
